<svg version="1.1" xmlns="http://www.w3.org/2000/svg" xmlns:xlink="http://www.w3.org/1999/xlink" width="446.563px" height="446.563px" viewBox="0,0,256,256"><g fill="#64d370" fill-rule="nonzero" stroke="none" stroke-width="1" stroke-linecap="butt" stroke-linejoin="miter" stroke-miterlimit="10" stroke-dasharray="" stroke-dashoffset="0" font-family="none" font-weight="none" font-size="none" text-anchor="none" style="mix-blend-mode: normal"><g transform="translate(0.00029,0) scale(0.57327,0.57327)"><g><path d="M388.679,70.746v-2.13c0,-4.803 -1.866,-9.303 -5.24,-12.659c-3.385,-3.386 -7.885,-5.251 -12.67,-5.251c-9.876,0 -17.91,8.035 -17.91,17.91v2.13h-36.996v-2.13c0,-4.803 -1.866,-9.303 -5.24,-12.659c-3.385,-3.386 -7.885,-5.251 -12.67,-5.251c-9.876,0 -17.91,8.035 -17.91,17.91v2.13h-36.996v-2.13c0,-4.802 -1.865,-9.302 -5.24,-12.66c-3.387,-3.386 -7.886,-5.25 -12.67,-5.25c-9.875,0 -17.91,8.035 -17.91,17.91v2.13h-36.997v-2.13c0,-4.802 -1.866,-9.303 -5.24,-12.66c-3.386,-3.386 -7.885,-5.25 -12.67,-5.25c-9.875,0 -17.91,8.035 -17.91,17.91v2.13h-36.996v-2.13c0,-4.802 -1.866,-9.303 -5.24,-12.66c-3.386,-3.386 -7.885,-5.25 -12.669,-5.25c-9.875,0 -17.91,8.035 -17.91,17.91v2.13h-35.977v6.703l-25.618,302.436h25.618v15.972h420.944v-325.111zM366.858,68.616c0,-2.156 1.754,-3.91 3.91,-3.91c1.045,0 2.028,0.408 2.783,1.164c0.727,0.723 1.127,1.698 1.127,2.747v2.13h-7.82zM294.042,68.616c0,-2.156 1.754,-3.91 3.91,-3.91c1.339,0 2.245,0.625 2.783,1.164c0.727,0.723 1.127,1.698 1.127,2.747v2.13h-7.82zM221.226,68.616c0,-2.156 1.754,-3.91 3.91,-3.91c1.34,0 2.246,0.625 2.783,1.162c0.727,0.723 1.127,1.699 1.127,2.748v2.13h-7.82zM148.41,68.616c0,-2.156 1.754,-3.91 3.91,-3.91c1.339,0 2.246,0.625 2.783,1.163c0.727,0.723 1.127,1.699 1.127,2.748v2.13h-7.82zM75.594,68.616c0,-2.156 1.754,-3.91 3.91,-3.91c1.339,0 2.246,0.625 2.783,1.163c0.727,0.723 1.127,1.699 1.127,2.748v2.13h-7.82zM15.236,365.885l10.382,-122.564v122.564zM432.563,381.857h-392.945v-297.111h43.795v9.092c-7.533,2.842 -12.916,10.105 -12.916,18.621c0,10.981 8.934,19.916 19.916,19.916c10.982,0 19.916,-8.934 19.916,-19.916c0,-8.515 -5.382,-15.779 -12.916,-18.621v-9.092h58.816v9.092c-7.533,2.842 -12.916,10.105 -12.916,18.621c0,10.981 8.934,19.916 19.916,19.916c10.981,0 19.915,-8.934 19.915,-19.916c0,-8.515 -5.382,-15.778 -12.915,-18.62v-9.092h58.816v9.092c-7.533,2.842 -12.916,10.105 -12.916,18.621c0,10.981 8.934,19.916 19.916,19.916c10.982,0 19.915,-8.934 19.915,-19.916c0,-8.515 -5.382,-15.778 -12.915,-18.621v-9.092h58.816v9.092c-7.533,2.842 -12.916,10.105 -12.916,18.621c0,10.981 8.935,19.916 19.916,19.916c10.981,0 19.915,-8.934 19.915,-19.916c0,-8.515 -5.382,-15.778 -12.915,-18.621v-9.092h58.816v9.092c-7.533,2.842 -12.916,10.105 -12.916,18.621c0,10.981 8.935,19.916 19.916,19.916c10.981,0 19.915,-8.934 19.915,-19.916c0,-8.515 -5.382,-15.778 -12.915,-18.621v-9.092h43.884v297.11zM96.329,112.459c0,3.262 -2.654,5.916 -5.916,5.916c-3.262,0 -5.916,-2.654 -5.916,-5.916c0,-3.262 2.654,-5.915 5.916,-5.915c3.262,0 5.916,2.653 5.916,5.915zM169.145,112.459c0,3.262 -2.653,5.916 -5.915,5.916c-3.262,0 -5.916,-2.654 -5.916,-5.916c0,-3.262 2.654,-5.915 5.916,-5.915c3.262,0 5.915,2.653 5.915,5.915zM241.961,112.459c0,3.262 -2.653,5.916 -5.915,5.916c-3.262,0 -5.915,-2.654 -5.915,-5.916c0,-3.262 2.653,-5.915 5.915,-5.915c3.262,0 5.915,2.653 5.915,5.915zM314.777,112.459c0,3.262 -2.653,5.916 -5.915,5.916c-3.262,0 -5.916,-2.654 -5.916,-5.916c0,-3.262 2.654,-5.915 5.916,-5.915c3.262,0 5.915,2.653 5.915,5.915zM387.594,112.459c0,3.262 -2.653,5.916 -5.915,5.916c-3.262,0 -5.916,-2.654 -5.916,-5.916c0,-3.262 2.654,-5.915 5.916,-5.915c3.262,0 5.915,2.653 5.915,5.915z"></path><path d="M66.243,354.885h339.694v-194.179h-339.694zM80.243,174.706h311.694v166.179h-311.694z"></path><rect x="93.09" y="191.795" width="22" height="22"></rect><rect x="134.34" y="191.795" width="22" height="22"></rect><rect x="175.59" y="191.795" width="22" height="22"></rect><rect x="216.84" y="191.795" width="22" height="22"></rect><rect x="258.091" y="191.795" width="22" height="22"></rect><rect x="357.091" y="191.795" width="22" height="22"></rect><rect x="318.091" y="191.795" width="22" height="22"></rect><rect x="93.09" y="228.462" width="22" height="22"></rect><rect x="134.34" y="228.462" width="22" height="22"></rect><rect x="175.59" y="228.462" width="22" height="22"></rect><rect x="216.84" y="228.462" width="22" height="22"></rect><rect x="258.091" y="228.462" width="22" height="22"></rect><rect x="357.091" y="228.462" width="22" height="22"></rect><rect x="318.091" y="228.462" width="22" height="22"></rect><rect x="93.09" y="265.128" width="22" height="22"></rect><rect x="134.34" y="265.128" width="22" height="22"></rect><rect x="175.59" y="265.128" width="22" height="22"></rect><rect x="216.84" y="265.128" width="22" height="22"></rect><rect x="258.091" y="265.128" width="22" height="22"></rect><rect x="357.091" y="265.128" width="22" height="22"></rect><rect x="318.091" y="265.128" width="22" height="22"></rect><rect x="93.09" y="301.795" width="22" height="22"></rect><rect x="134.34" y="301.795" width="22" height="22"></rect><rect x="175.59" y="301.795" width="22" height="22"></rect><rect x="216.84" y="301.795" width="22" height="22"></rect><rect x="258.091" y="301.795" width="22" height="22"></rect><rect x="357.091" y="301.795" width="22" height="22"></rect><rect x="318.091" y="301.795" width="22" height="22"></rect></g><g font-family="Inter, apple-system, BlinkMacSystemFont, &quot;Helvetica Neue&quot;, &quot;Segoe UI&quot;, &quot;Fira Sans&quot;, Roboto, Oxygen, Ubuntu, &quot;Droid Sans&quot;, Arial, sans-serif" font-weight="400" font-size="16" text-anchor="start"></g><g font-family="Inter, apple-system, BlinkMacSystemFont, &quot;Helvetica Neue&quot;, &quot;Segoe UI&quot;, &quot;Fira Sans&quot;, Roboto, Oxygen, Ubuntu, &quot;Droid Sans&quot;, Arial, sans-serif" font-weight="400" font-size="16" text-anchor="start"></g><g font-family="Inter, apple-system, BlinkMacSystemFont, &quot;Helvetica Neue&quot;, &quot;Segoe UI&quot;, &quot;Fira Sans&quot;, Roboto, Oxygen, Ubuntu, &quot;Droid Sans&quot;, Arial, sans-serif" font-weight="400" font-size="16" text-anchor="start"></g><g font-family="Inter, apple-system, BlinkMacSystemFont, &quot;Helvetica Neue&quot;, &quot;Segoe UI&quot;, &quot;Fira Sans&quot;, Roboto, Oxygen, Ubuntu, &quot;Droid Sans&quot;, Arial, sans-serif" font-weight="400" font-size="16" text-anchor="start"></g><g font-family="Inter, apple-system, BlinkMacSystemFont, &quot;Helvetica Neue&quot;, &quot;Segoe UI&quot;, &quot;Fira Sans&quot;, Roboto, Oxygen, Ubuntu, &quot;Droid Sans&quot;, Arial, sans-serif" font-weight="400" font-size="16" text-anchor="start"></g><g font-family="Inter, apple-system, BlinkMacSystemFont, &quot;Helvetica Neue&quot;, &quot;Segoe UI&quot;, &quot;Fira Sans&quot;, Roboto, Oxygen, Ubuntu, &quot;Droid Sans&quot;, Arial, sans-serif" font-weight="400" font-size="16" text-anchor="start"></g><g font-family="Inter, apple-system, BlinkMacSystemFont, &quot;Helvetica Neue&quot;, &quot;Segoe UI&quot;, &quot;Fira Sans&quot;, Roboto, Oxygen, Ubuntu, &quot;Droid Sans&quot;, Arial, sans-serif" font-weight="400" font-size="16" text-anchor="start"></g><g font-family="Inter, apple-system, BlinkMacSystemFont, &quot;Helvetica Neue&quot;, &quot;Segoe UI&quot;, &quot;Fira Sans&quot;, Roboto, Oxygen, Ubuntu, &quot;Droid Sans&quot;, Arial, sans-serif" font-weight="400" font-size="16" text-anchor="start"></g><g font-family="Inter, apple-system, BlinkMacSystemFont, &quot;Helvetica Neue&quot;, &quot;Segoe UI&quot;, &quot;Fira Sans&quot;, Roboto, Oxygen, Ubuntu, &quot;Droid Sans&quot;, Arial, sans-serif" font-weight="400" font-size="16" text-anchor="start"></g><g font-family="Inter, apple-system, BlinkMacSystemFont, &quot;Helvetica Neue&quot;, &quot;Segoe UI&quot;, &quot;Fira Sans&quot;, Roboto, Oxygen, Ubuntu, &quot;Droid Sans&quot;, Arial, sans-serif" font-weight="400" font-size="16" text-anchor="start"></g><g font-family="Inter, apple-system, BlinkMacSystemFont, &quot;Helvetica Neue&quot;, &quot;Segoe UI&quot;, &quot;Fira Sans&quot;, Roboto, Oxygen, Ubuntu, &quot;Droid Sans&quot;, Arial, sans-serif" font-weight="400" font-size="16" text-anchor="start"></g><g font-family="Inter, apple-system, BlinkMacSystemFont, &quot;Helvetica Neue&quot;, &quot;Segoe UI&quot;, &quot;Fira Sans&quot;, Roboto, Oxygen, Ubuntu, &quot;Droid Sans&quot;, Arial, sans-serif" font-weight="400" font-size="16" text-anchor="start"></g><g font-family="Inter, apple-system, BlinkMacSystemFont, &quot;Helvetica Neue&quot;, &quot;Segoe UI&quot;, &quot;Fira Sans&quot;, Roboto, Oxygen, Ubuntu, &quot;Droid Sans&quot;, Arial, sans-serif" font-weight="400" font-size="16" text-anchor="start"></g><g font-family="Inter, apple-system, BlinkMacSystemFont, &quot;Helvetica Neue&quot;, &quot;Segoe UI&quot;, &quot;Fira Sans&quot;, Roboto, Oxygen, Ubuntu, &quot;Droid Sans&quot;, Arial, sans-serif" font-weight="400" font-size="16" text-anchor="start"></g><g font-family="Inter, apple-system, BlinkMacSystemFont, &quot;Helvetica Neue&quot;, &quot;Segoe UI&quot;, &quot;Fira Sans&quot;, Roboto, Oxygen, Ubuntu, &quot;Droid Sans&quot;, Arial, sans-serif" font-weight="400" font-size="16" text-anchor="start"></g></g></g></svg>