<svg width="69" height="69" viewBox="0 0 69 69" fill="none" xmlns="http://www.w3.org/2000/svg">
<path d="M34.5241 67.9174C15.8677 67.9174 0.69043 52.7401 0.69043 34.0837C0.69043 15.4273 15.8677 0.25 34.5241 0.25C53.1805 0.25 68.3578 15.4273 68.3578 34.0837C68.3578 52.7401 53.1805 67.9174 34.5241 67.9174ZM34.5241 4.01046C17.9407 4.01046 4.45089 17.5003 4.45089 34.0837C4.45089 50.6671 17.9407 64.1569 34.5241 64.1569C51.1075 64.1569 64.5973 50.6671 64.5973 34.0837C64.5973 17.5003 51.1075 4.01046 34.5241 4.01046Z" fill="#64D370" stroke="#E5E5E5" stroke-width="0.5"/>
<path d="M48.1078 51.7445L48.1073 51.7439L33.1957 36.8323C32.842 36.4787 32.6443 35.9998 32.6443 35.504V15.6215C32.6443 14.5837 33.4867 13.7413 34.5245 13.7413C35.5623 13.7413 36.4047 14.5837 36.4047 15.6215V34.6204V34.7239L36.478 34.7972L50.765 49.0842C51.4995 49.8187 51.4995 51.0094 50.765 51.7439L50.7644 51.7445C50.3985 52.1127 49.9182 52.2958 49.4361 52.2958C48.954 52.2958 48.4738 52.1127 48.1078 51.7445Z" fill="#64D370" stroke="#E5E5E5" stroke-width="0.5"/>
</svg>
